<svg width="32" height="32" viewBox="0 0 32 32" fill="none" xmlns="http://www.w3.org/2000/svg">
  <defs>
    <linearGradient id="educationGrad" x1="0%" y1="0%" x2="100%" y2="100%">
      <stop offset="0%" style="stop-color:#7C3AED;stop-opacity:1" />
      <stop offset="50%" style="stop-color:#A855F7;stop-opacity:1" />
      <stop offset="100%" style="stop-color:#C084FC;stop-opacity:1" />
    </linearGradient>
    <filter id="educationGlow">
      <feGaussianBlur stdDeviation="1.5" result="coloredBlur"/>
      <feMerge> 
        <feMergeNode in="coloredBlur"/>
        <feMergeNode in="SourceGraphic"/>
      </feMerge>
    </filter>
  </defs>
  
  <!-- Background circle with gradient -->
  <circle cx="16" cy="16" r="15" fill="url(#educationGrad)" filter="url(#educationGlow)"/>
  
  <!-- Graduation Cap Logo -->
  <g transform="translate(6, 8)">
    <!-- Main cap body -->
    <rect x="4" y="4" width="12" height="3" fill="white" opacity="0.95" rx="1"/>
    
    <!-- Cap top -->
    <rect x="3" y="3" width="14" height="2" fill="white" opacity="0.95" rx="1"/>
    
    <!-- Tassel -->
    <circle cx="16" cy="2" r="0.8" fill="white" opacity="0.95"/>
    <path d="M16 2L16 6" stroke="white" stroke-width="0.8" opacity="0.95"/>
    
    <!-- Cap details -->
    <rect x="5" y="5" width="10" height="1" fill="url(#educationGrad)" opacity="0.3"/>
  </g>
  
  <!-- Academic stars for excellence -->
  <g transform="translate(4, 4)">
    <path d="M2 2L2.5 3.5L4 3L2.5 4.5L2 6L1.5 4.5L0 3L1.5 3.5L2 2Z" fill="white" opacity="0.6"/>
  </g>
  <g transform="translate(24, 4)">
    <path d="M2 2L2.5 3.5L4 3L2.5 4.5L2 6L1.5 4.5L0 3L1.5 3.5L2 2Z" fill="white" opacity="0.6"/>
  </g>
  <g transform="translate(4, 24)">
    <path d="M2 2L2.5 3.5L4 3L2.5 4.5L2 6L1.5 4.5L0 3L1.5 3.5L2 2Z" fill="white" opacity="0.6"/>
  </g>
  <g transform="translate(24, 24)">
    <path d="M2 2L2.5 3.5L4 3L2.5 4.5L2 6L1.5 4.5L0 3L1.5 3.5L2 2Z" fill="white" opacity="0.6"/>
  </g>
  
  <!-- Book symbol for knowledge -->
  <g transform="translate(12, 20)">
    <rect x="1" y="2" width="6" height="4" fill="white" opacity="0.7" rx="0.5"/>
    <rect x="2" y="1" width="4" height="1" fill="white" opacity="0.7" rx="0.3"/>
    <rect x="2" y="3" width="4" height="0.5" fill="url(#educationGrad)" opacity="0.4"/>
  </g>
</svg>
