<svg width="32" height="32" viewBox="0 0 32 32" fill="none" xmlns="http://www.w3.org/2000/svg">
  <defs>
    <linearGradient id="grantGrad" x1="0%" y1="0%" x2="100%" y2="100%">
      <stop offset="0%" style="stop-color:#1E40AF;stop-opacity:1" />
      <stop offset="50%" style="stop-color:#3B82F6;stop-opacity:1" />
      <stop offset="100%" style="stop-color:#60A5FA;stop-opacity:1" />
    </linearGradient>
    <filter id="grantGlow">
      <feGaussianBlur stdDeviation="1.5" result="coloredBlur"/>
      <feMerge> 
        <feMergeNode in="coloredBlur"/>
        <feMergeNode in="SourceGraphic"/>
      </feMerge>
    </filter>
  </defs>
  
  <!-- Background circle with gradient -->
  <circle cx="16" cy="16" r="15" fill="url(#grantGrad)" filter="url(#grantGlow)"/>
  
  <!-- Grant Guard Logo - Shield with Academic Cap -->
  <g transform="translate(8, 6)">
    <!-- Shield shape -->
    <path d="M8 2L8 12L6 12L6 14L10 14L10 12L8 12L8 2Z" fill="white" opacity="0.95"/>
    
    <!-- Academic cap (mortarboard) -->
    <rect x="2" y="2" width="12" height="2" fill="white" opacity="0.95"/>
    <rect x="2" y="4" width="2" height="2" fill="white" opacity="0.95"/>
    <rect x="12" y="4" width="2" height="2" fill="white" opacity="0.95"/>
    
    <!-- Tassel -->
    <circle cx="14" cy="3" r="0.5" fill="white" opacity="0.95"/>
    <path d="M14 3L14 6" stroke="white" stroke-width="0.5" opacity="0.95"/>
  </g>
  
  <!-- Encryption dots for privacy -->
  <circle cx="6" cy="6" r="1" fill="white" opacity="0.4"/>
  <circle cx="26" cy="6" r="1" fill="white" opacity="0.4"/>
  <circle cx="6" cy="26" r="1" fill="white" opacity="0.4"/>
  <circle cx="26" cy="26" r="1" fill="white" opacity="0.4"/>
  
  <!-- Lock symbol for security -->
  <g transform="translate(12, 20)">
    <rect x="2" y="4" width="4" height="3" fill="white" opacity="0.7"/>
    <path d="M3 4L3 2L5 2L5 4" stroke="white" stroke-width="0.5" opacity="0.7"/>
  </g>
</svg>
